<svg width="150" height="150" viewBox="0 0 150 150" fill="none" xmlns="http://www.w3.org/2000/svg">
<path d="M148.927 82.68C148.232 85.0907 147.206 87.405 145.878 89.5564C143.336 93.6686 139.72 97.1293 135.398 99.585C135.139 99.7307 135.014 100.033 135.094 100.318C136.411 105.116 136.521 110.121 135.406 114.825C134.824 117.285 133.913 119.646 132.7 121.841C131.451 124.099 129.881 126.182 128.031 128.031C122.784 133.279 115.754 136.17 108.24 136.17C105.574 136.17 102.915 135.806 100.329 135.088C100.042 135.009 99.74 135.133 99.5943 135.392C97.1346 139.719 93.6742 143.336 89.5625 145.875C87.4113 147.204 85.0972 148.23 82.6846 148.924C80.2034 149.638 77.6194 150 75.0032 150C72.387 150 69.803 149.638 67.3218 148.924C64.9092 148.23 62.5952 147.204 60.444 145.875C56.3301 143.334 52.8697 139.716 50.4121 135.392C50.2643 135.133 49.9621 135.009 49.6772 135.088C47.091 135.806 44.4298 136.17 41.7665 136.17C34.2501 136.17 27.2223 133.279 21.9749 128.031C20.1258 126.182 18.5553 124.099 17.3061 121.841C16.0912 119.646 15.1806 117.285 14.6 114.825C13.4879 110.121 13.5972 105.118 14.9128 100.318C14.9921 100.031 14.8657 99.7307 14.6085 99.5829C10.2868 97.1271 6.67005 93.6664 4.12887 89.5543C2.80043 87.4029 1.77411 85.0907 1.07989 82.6779C0.362107 80.1986 0 77.6143 0 75C0 72.3857 0.362107 69.8014 1.07561 67.32C1.76982 64.9093 2.79615 62.595 4.12459 60.4436C6.66576 56.3314 10.2825 52.8707 14.6043 50.415C14.8635 50.2693 14.9878 49.9671 14.9085 49.6821C13.5908 44.8843 13.4815 39.8786 14.5957 35.175C15.1785 32.715 16.0891 30.3536 17.3018 28.1593C18.551 25.9007 20.1216 23.8179 21.9707 21.9686C27.218 16.7207 34.248 13.83 41.7623 13.83C44.4277 13.83 47.0867 14.1943 49.6729 14.9121C49.96 14.9914 50.2621 14.8671 50.4078 14.6079C52.8676 10.2814 56.3279 6.66429 60.4397 4.125C62.5909 2.79643 64.9049 1.77 67.3176 1.07571C69.803 0.362143 72.387 0 75.0011 0C77.6172 0 80.2013 0.362143 82.6824 1.07571C85.0951 1.77 87.4091 2.79643 89.5603 4.125C93.6742 6.66643 97.1346 10.2836 99.5922 14.6079C99.74 14.8671 100.042 14.9914 100.327 14.9121C102.913 14.1943 105.574 13.83 108.238 13.83C115.754 13.83 122.782 16.7207 128.029 21.9686C129.878 23.8179 131.449 25.9007 132.698 28.1593C133.913 30.3536 134.824 32.715 135.404 35.175C136.516 39.8786 136.407 44.8821 135.091 49.6821C135.012 49.9693 135.136 50.2693 135.396 50.415C139.717 52.8707 143.334 56.3314 145.875 60.4436C147.204 62.595 148.23 64.9071 148.924 67.32C149.638 69.8014 150 72.3857 150 75C150 77.6143 149.638 80.1986 148.924 82.68H148.927ZM95.7333 126.174C95.789 126.201 95.8468 126.214 95.9068 126.214C96.0675 126.214 96.2111 126.114 96.2625 125.964C96.9374 124.044 97.381 122.038 97.5845 120.006C97.8952 116.906 97.6252 113.848 96.7853 110.919C95.4376 106.23 92.89 102.849 90.9895 100.834C90.5245 100.341 90.036 99.8636 89.4939 99.375C88.6561 98.625 87.6341 98.2286 86.5349 98.2286C85.4357 98.2286 84.3451 98.6357 83.5031 99.3771C82.6203 100.153 82.0846 101.239 81.9968 102.435C81.9411 103.185 81.9218 103.982 81.9411 104.803C82.0696 109.821 83.7473 113.777 85.1315 116.214C86.5821 118.768 88.4847 121.031 90.7838 122.942C92.3051 124.206 93.9699 125.293 95.7311 126.171L95.7333 126.174ZM52.4176 120.006C52.6212 122.04 53.0668 124.044 53.7396 125.964C53.791 126.114 53.9346 126.214 54.0953 126.214C54.1553 126.214 54.2132 126.199 54.2689 126.174C56.0301 125.295 57.6949 124.209 59.2162 122.944C61.5153 121.033 63.4179 118.768 64.8685 116.216C66.2527 113.779 67.9304 109.824 68.0589 104.805C68.0782 103.984 68.0589 103.189 68.0032 102.437C67.9154 101.241 67.3797 100.157 66.4969 99.3793C65.6549 98.64 64.5771 98.2307 63.4651 98.2307C62.3531 98.2307 61.3439 98.6271 60.5061 99.3771C59.964 99.8657 59.4755 100.341 59.0105 100.836C57.11 102.849 54.5624 106.232 53.2147 110.921C52.3748 113.85 52.1048 116.906 52.4155 120.009L52.4176 120.006ZM54.271 23.8264C54.2153 23.7986 54.1574 23.7857 54.0974 23.7857C53.9367 23.7857 53.7932 23.8864 53.7418 24.0364C53.0668 25.9564 52.6233 27.9621 52.4198 29.9936C52.1091 33.0943 52.379 36.1521 53.219 39.0814C54.5667 43.77 57.1143 47.1514 59.0148 49.1657C59.4798 49.6586 59.9683 50.1364 60.5104 50.625C61.3482 51.375 62.3702 51.7714 63.4694 51.7714C64.5835 51.7714 65.6591 51.3643 66.5012 50.6229C67.384 49.8471 67.9196 48.7607 68.0075 47.565C68.0632 46.815 68.0825 46.0179 68.0632 45.1971C67.9346 40.1786 66.2569 36.2229 64.8728 33.7864C63.4222 31.2321 61.5196 28.9693 59.2205 27.0579C57.6992 25.7936 56.0344 24.7071 54.2731 23.8286L54.271 23.8264ZM97.5845 29.9936C97.381 27.96 96.9353 25.9564 96.2625 24.0364C96.2111 23.8864 96.0675 23.7857 95.9068 23.7857C95.8468 23.7857 95.789 23.8007 95.7333 23.8264C93.972 24.705 92.3072 25.7914 90.7859 27.0557C88.4869 28.9671 86.5842 31.2321 85.1336 33.7843C83.7495 36.2207 82.0718 40.1764 81.9432 45.195C81.924 46.0157 81.9432 46.8107 81.9989 47.5629C82.0868 48.7586 82.6225 49.8429 83.5052 50.6207C84.3473 51.36 85.425 51.7693 86.5371 51.7693C87.6491 51.7693 88.6583 51.3729 89.496 50.6229C90.0381 50.1343 90.5267 49.6586 90.9916 49.1636C92.8921 47.1514 95.4397 43.7679 96.7875 39.0793C97.6274 36.15 97.8974 33.0943 97.5867 29.9914L97.5845 29.9936ZM137.106 58.905C136.668 58.4957 136.176 58.0714 135.644 57.6471C135.141 57.2443 134.577 57.0257 134.014 57.0086C133.988 57.0086 133.962 57.0086 133.937 57.0086C132.992 57.0086 132.124 57.4907 131.62 58.2986C130.292 60.4071 128.713 62.3807 126.926 64.1593C120.695 70.395 112.274 73.9714 103.82 73.9714C100.269 73.9714 96.8453 73.3564 93.6421 72.1436C92.0437 71.5457 90.4881 70.785 89.0118 69.8786C88.6861 69.6793 88.489 69.3171 88.504 68.9357C88.5597 67.5 89.7875 64.9993 90.186 63.8871C90.1967 63.8593 90.2074 63.8314 90.2203 63.8036C95.1462 52.9564 106.588 45.9514 119.384 45.9514C121.927 45.9514 124.436 46.2279 126.844 46.7743C127.057 46.8236 127.26 46.8471 127.466 46.8471C128.835 46.8471 129.983 45.8443 130.14 44.5157C130.219 43.8429 130.271 43.155 130.29 42.4714C130.483 36.2507 128.207 30.4457 123.883 26.1214C119.742 21.9857 114.186 19.7079 108.24 19.7079C107.34 19.7079 106.432 19.7571 105.54 19.8579C104.672 19.9586 103.925 20.4621 103.492 21.2336C103.17 21.8057 103.087 22.5407 103.258 23.3036C103.785 25.6629 104.053 28.125 104.053 30.6171C104.053 43.4379 97.0253 54.8979 86.1514 59.8093C84.5915 60.5057 82.9631 61.0714 81.2983 61.4657C80.8676 61.5664 80.4134 61.4036 80.1627 61.0393C79.1878 59.6207 78.4936 57.9321 77.8636 56.3679C73.6405 45.2079 76.7688 32.1429 85.8386 23.0807C87.6277 21.2914 89.601 19.71 91.7051 18.3814C92.3715 17.9657 92.8279 17.2864 92.9607 16.5171C93.0871 15.7693 92.9007 15.0386 92.4358 14.4557C92.0415 13.95 91.5916 13.4271 91.0987 12.9C86.8349 8.36786 81.1162 5.87143 74.9989 5.87143C68.8817 5.87143 63.1651 8.36786 58.8991 12.9C58.4042 13.4271 57.9563 13.95 57.5621 14.4557C57.0993 15.0386 56.9129 15.7693 57.0372 16.5171C57.17 17.2864 57.6264 17.9657 58.2927 18.3814C60.3968 19.71 62.3702 21.2914 64.1593 23.0807C73.227 32.1429 76.3574 45.2079 72.1342 56.3679C71.5064 57.93 70.8101 59.6207 69.8352 61.0393C69.5845 61.4036 69.1302 61.5664 68.6996 61.4657C67.0347 61.0736 65.4063 60.5057 63.8465 59.8093C52.9704 54.8957 45.9447 43.4379 45.9447 30.6171C45.9447 28.1229 46.2125 25.6629 46.7396 23.3036C46.911 22.5407 46.8275 21.8057 46.5061 21.2336C46.0732 20.46 45.3255 19.9586 44.4577 19.8579C43.5664 19.7593 42.66 19.7079 41.758 19.7079C35.8121 19.7079 30.2563 21.9857 26.1145 26.1214C21.7907 30.4457 19.5152 36.2529 19.708 42.4714C19.7273 43.155 19.7766 43.845 19.858 44.5157C20.0123 45.8443 21.1629 46.8471 22.532 46.8471C22.7399 46.8471 22.9413 46.8236 23.1534 46.7743C25.5617 46.2279 28.0708 45.9514 30.6141 45.9514C43.4121 45.9514 54.8538 52.9586 59.7776 63.8057C59.7904 63.8336 59.8012 63.8593 59.8097 63.8871C60.219 65.0164 61.421 67.4721 61.4917 68.9207C61.511 69.3086 61.3139 69.6771 60.9839 69.8786C59.5076 70.785 57.9521 71.5457 56.3537 72.1436C53.1504 73.3564 49.7265 73.9714 46.1761 73.9714C37.7234 73.9714 29.3006 70.395 23.0698 64.1593C21.285 62.3807 19.7059 60.4071 18.3753 58.2986C17.8696 57.4907 17.004 57.0086 16.0591 57.0086C16.0334 57.0086 16.0077 57.0086 15.982 57.0086C15.4185 57.0236 14.8549 57.2443 14.3514 57.6471C13.82 58.0714 13.3272 58.4957 12.8901 58.905C8.35631 63.1757 5.86013 68.8929 5.86013 75C5.86013 81.1071 8.35631 86.8243 12.8901 91.095C13.3272 91.5043 13.82 91.9286 14.3514 92.3529C14.8549 92.7557 15.4185 92.9743 15.982 92.9914C16.0077 92.9914 16.0334 92.9914 16.0591 92.9914C17.004 92.9914 17.8718 92.5093 18.3753 91.7014C19.7037 89.5929 21.2829 87.6193 23.0698 85.8407C29.3006 79.605 37.7212 76.0286 46.1761 76.0286C49.7265 76.0286 53.1504 76.6436 56.3537 77.8564C57.9521 78.4543 59.5076 79.215 60.9839 80.1214C61.3096 80.3207 61.5067 80.6829 61.4917 81.0643C61.436 82.5 60.2083 85.0007 59.8097 86.1129C59.799 86.1407 59.7883 86.1686 59.7755 86.1964C54.8495 97.0436 43.4078 104.049 30.6119 104.049C28.0686 104.049 25.5596 103.772 23.1513 103.226C22.9391 103.176 22.7356 103.153 22.5299 103.153C21.1607 103.153 20.0123 104.156 19.8559 105.484C19.7766 106.157 19.7252 106.845 19.7059 107.529C19.513 113.749 21.7885 119.554 26.1124 123.879C30.2541 128.014 35.81 130.292 41.7558 130.292C42.6557 130.292 43.5642 130.243 44.4556 130.142C45.3233 130.041 46.0711 129.538 46.5039 128.766C46.8253 128.194 46.9089 127.459 46.7375 126.696C46.2104 124.337 45.9425 121.875 45.9425 119.383C45.9425 106.562 52.9704 95.1021 63.8443 90.1907C65.4042 89.4943 67.0326 88.9286 68.6974 88.5343C69.1281 88.4336 69.5823 88.5964 69.833 88.9607C70.8079 90.3793 71.5021 92.0679 72.1321 93.6321C76.3552 104.792 73.227 117.857 64.1572 126.919C62.368 128.709 60.3947 130.29 58.2906 131.619C57.6242 132.034 57.1679 132.714 57.035 133.483C56.9086 134.229 57.095 134.961 57.56 135.544C57.9542 136.05 58.4042 136.573 58.897 137.1C63.1608 141.632 68.8795 144.129 74.9968 144.129C81.114 144.129 86.8306 141.632 91.0966 137.1C91.5916 136.573 92.0394 136.05 92.4336 135.544C92.8964 134.961 93.0828 134.231 92.9586 133.483C92.8257 132.714 92.3693 132.034 91.703 131.619C89.5989 130.29 87.6255 128.709 85.8364 126.919C76.7687 117.857 73.6384 104.792 77.8615 93.6321C78.5043 92.0614 79.1685 90.3686 80.1756 88.9564C80.407 88.6329 80.8012 88.4614 81.1955 88.5193C82.4318 88.7014 84.0173 89.31 86.1492 90.1907C97.0253 95.1043 104.051 106.562 104.051 119.383C104.051 121.877 103.783 124.337 103.256 126.696C103.085 127.459 103.168 128.194 103.49 128.766C103.922 129.54 104.67 130.041 105.538 130.142C106.429 130.241 107.336 130.292 108.238 130.292C114.184 130.292 119.739 128.014 123.881 123.879C128.205 119.554 130.481 113.747 130.288 107.529C130.268 106.845 130.219 106.155 130.138 105.484C129.983 104.156 128.833 103.153 127.464 103.153C127.256 103.153 127.054 103.176 126.842 103.226C124.434 103.772 121.925 104.049 119.382 104.049C106.586 104.049 95.1441 97.0414 90.2181 86.1943C90.2053 86.1664 90.1945 86.1407 90.1838 86.1107C89.7874 85.0093 88.5576 82.4979 88.4997 81.0621C88.4847 80.6807 88.6818 80.3186 89.0075 80.1193C90.4838 79.2129 92.0394 78.4521 93.6378 77.8543C96.841 76.6414 100.265 76.0264 103.815 76.0264C112.268 76.0264 120.691 79.6029 126.922 85.8386C128.706 87.6171 130.286 89.5907 131.616 91.6993C132.122 92.5071 132.987 92.9893 133.932 92.9893C133.958 92.9893 133.984 92.9893 134.009 92.9893C134.573 92.9743 135.136 92.7536 135.64 92.3507C136.171 91.9264 136.664 91.5021 137.101 91.0929C141.635 86.8221 144.131 81.105 144.131 74.9979C144.131 68.8907 141.635 63.1736 137.101 58.9029L137.106 58.905ZM126.075 53.6893C126.032 53.5886 125.947 53.5093 125.842 53.4729C123.256 52.6071 120.459 52.1507 117.751 52.1507C115.563 52.1507 113.395 52.4421 111.304 53.0186C108.602 53.7621 104.619 55.3714 100.981 58.83C100.387 59.3957 99.8386 59.9743 99.3458 60.5443C98.763 61.2193 98.3944 62.0293 98.2809 62.8864C98.1738 63.6921 98.2873 64.5193 98.6109 65.28C98.9323 66.0343 99.4422 66.6857 100.087 67.1614C100.775 67.6671 101.604 67.9607 102.485 68.01C102.96 68.0357 103.41 68.0464 103.858 68.0464C104.098 68.0464 104.338 68.0421 104.574 68.0357C107.34 67.9564 111.535 67.3671 115.801 65.0036C118.467 63.5271 120.817 61.5557 122.791 59.1429C124.085 57.5614 125.186 55.83 126.067 53.9957C126.114 53.8971 126.116 53.7879 126.075 53.6871V53.6893ZM23.9376 53.9979C24.8182 55.8321 25.9217 57.5657 27.2137 59.145C29.1871 61.5579 31.5397 63.5293 34.203 65.0057C38.469 67.3671 42.6643 67.9586 45.4305 68.0379C45.6661 68.0443 45.9061 68.0486 46.1461 68.0486C46.5939 68.0486 47.0439 68.0357 47.5195 68.0121C48.4002 67.9629 49.2294 67.6693 49.9172 67.1636C50.5621 66.6879 51.0742 66.0386 51.3934 65.2821C51.717 64.5214 51.8305 63.6943 51.7234 62.8886C51.6077 62.0314 51.2392 61.2214 50.6585 60.5464C50.1678 59.9764 49.6172 59.4 49.0237 58.8321C45.3855 55.3736 41.4023 53.7621 38.7004 53.0207C36.6092 52.4443 34.4408 52.1529 32.2532 52.1529C29.5449 52.1529 26.7488 52.6093 24.1626 53.475C24.0576 53.5093 23.9719 53.5886 23.929 53.6914C23.8862 53.7921 23.8905 53.9014 23.9376 54V53.9979ZM23.929 96.3107C23.9719 96.4114 24.0576 96.4907 24.1626 96.5271C26.7488 97.3929 29.5449 97.8493 32.2532 97.8493C34.4408 97.8493 36.6092 97.5579 38.7004 96.9814C41.4023 96.2379 45.3855 94.6286 49.0237 91.17C49.6172 90.6043 50.1657 90.0257 50.6585 89.4557C51.2413 88.7807 51.6098 87.9707 51.7234 87.1136C51.8305 86.3079 51.717 85.4807 51.3934 84.72C51.072 83.9657 50.5621 83.3143 49.9172 82.8386C49.2294 82.3329 48.4002 82.0393 47.5195 81.99C47.0439 81.9643 46.5939 81.9536 46.1461 81.9536C45.9061 81.9536 45.6661 81.9579 45.4305 81.9643C42.6643 82.0436 38.469 82.6329 34.203 84.9964C31.5376 86.4729 29.1871 88.4443 27.2137 90.8571C25.9196 92.4386 24.8182 94.17 23.9376 96.0043C23.8905 96.1029 23.8883 96.2121 23.929 96.3129V96.3107ZM126.067 96.0021C125.186 94.1679 124.083 92.4343 122.791 90.855C120.817 88.4421 118.465 86.4707 115.801 84.9943C111.535 82.6329 107.34 82.0414 104.574 81.9621C104.338 81.9557 104.098 81.9514 103.858 81.9514C103.41 81.9514 102.96 81.9643 102.485 81.9879C101.604 82.0371 100.775 82.3307 100.087 82.8364C99.4422 83.3121 98.9301 83.9614 98.6109 84.7179C98.2873 85.4786 98.1738 86.3057 98.2809 87.1114C98.3966 87.9686 98.7651 88.7786 99.3458 89.4536C99.8364 90.0236 100.387 90.6 100.981 91.1679C104.619 94.6264 108.602 96.2379 111.304 96.9793C113.395 97.5557 115.563 97.8471 117.751 97.8471C120.459 97.8471 123.256 97.3907 125.842 96.525C125.947 96.4907 126.032 96.4114 126.075 96.3086C126.118 96.2079 126.114 96.0986 126.067 96V96.0021Z" fill="white"/>
</svg>
